<svg width="160" height="156" viewBox="0 0 160 156" fill="none" xmlns="http://www.w3.org/2000/svg">
<g filter="url(#filter0_i_125_1454)">
<path d="M0 77.5C0.0108305 94.6438 5.35738 111.346 15.2761 125.221C25.1949 139.096 39.1786 149.434 55.2304 154.76V150.355C40.4341 145.152 27.5823 135.435 18.4328 122.535C9.28334 109.634 4.28293 94.1791 4.11553 78.2834H12.6681C12.8309 91.8241 16.9665 105.008 24.5465 116.151C32.1265 127.293 42.8068 135.889 55.2227 140.839V139.152C43.115 134.195 32.7433 125.676 25.4395 114.691C18.1357 103.705 14.2333 90.7538 14.2333 77.5C14.2333 64.2463 18.1357 51.2951 25.4395 40.3095C32.7433 29.3239 43.115 20.8054 55.2227 15.8479V14.161C42.8083 19.1123 32.1296 27.7084 24.551 38.851C16.9724 49.9936 12.838 63.1769 12.6758 76.7167H4.11553C4.28237 60.8219 9.28165 45.3675 18.4297 32.467C27.5777 19.5665 40.4278 9.8497 55.2227 4.6455V0.237671C39.172 5.56479 25.1896 15.9043 15.2723 29.7796C5.35493 43.655 0.00975613 60.3568 0 77.5Z" fill="url(#paint0_linear_125_1454)"/>
<path d="M136.561 20.0755C127.473 10.8089 116.306 3.91994 104.017 0V4.38434C118.993 9.47584 132.035 19.1775 141.328 32.1406C150.622 45.1037 155.707 60.6844 155.876 76.7166H146.572C146.409 63.176 142.274 49.992 134.694 38.8493C127.114 27.7066 116.433 19.111 104.017 14.1609V15.8478C116.125 20.8054 126.497 29.3238 133.801 40.3094C141.104 51.295 145.007 64.2463 145.007 77.5C145.007 90.7537 141.104 103.705 133.801 114.691C126.497 125.676 116.125 134.195 104.017 139.152V140.839C116.433 135.889 127.114 127.293 134.694 116.151C142.274 105.008 146.409 91.824 146.572 78.2834H155.876C155.708 94.3147 150.624 109.895 141.332 122.858C132.039 135.821 119 145.523 104.025 150.616V155.005C117.141 150.809 128.971 143.253 138.373 133.065C147.775 122.877 154.433 110.402 157.704 96.8415C160.974 83.2814 160.748 69.0945 157.046 55.6492C153.344 42.2038 146.291 29.9538 136.569 20.0807L136.561 20.0755Z" fill="url(#paint1_linear_125_1454)"/>
<path d="M79.9957 122.077C55.7835 122.077 36.0856 102.08 36.0856 77.5C36.0856 52.9201 55.7835 32.923 79.9957 32.923C104.208 32.923 123.906 52.9201 123.906 77.5C123.906 102.08 104.208 122.077 79.9957 122.077ZM79.9957 34.4897C56.6349 34.4897 37.6289 53.7844 37.6289 77.5C37.6289 101.216 56.6349 120.51 79.9957 120.51C103.357 120.51 122.363 101.216 122.363 77.5C122.363 53.7844 103.357 34.4897 79.9957 34.4897Z" fill="url(#paint2_linear_125_1454)"/>
<path d="M79.8748 117.821C87.6477 117.82 95.2506 115.51 101.746 111.176C108.241 106.842 113.345 100.672 116.428 93.4287L112.097 90.8175V80.2392L101.808 74.8312V97.0845H97.443V106.702H95.8148V45.6842L85.688 55.9648V69.781L78.4524 77.1187V106.689H76.7907V92.0317L71.6 88.4255V106.689H69.9435V76.7584L61.8925 83.8506V106.689H59.292V97.672H57.7487V91.9038H53.1187V74.7163L46.8451 79.4166V95.2749L45.0111 96.9644C48.4545 103.288 53.5052 108.558 59.6371 112.226C65.7689 115.895 72.7575 117.826 79.8748 117.821Z" fill="url(#paint3_linear_125_1454)"/>
</g>
<defs>
<filter id="filter0_i_125_1454" x="0" y="0" width="160" height="155.005" filterUnits="userSpaceOnUse">
<feFlood flood-opacity="0" result="BackgroundImageFix"/>
<feBlend mode="normal" in="SourceGraphic" in2="BackgroundImageFix" result="shape"/>
<feColorMatrix in="SourceAlpha" type="matrix" values="0 0 0 0 0 0 0 0 0 0 0 0 0 0 0 0 0 0 127 0" result="hardAlpha"/>
<feOffset dy="1"/>
<feComposite in2="hardAlpha" operator="arithmetic" k2="-1" k3="1"/>
<feColorMatrix type="matrix" values="0 0 0 0 0 0 0 0 0 0 0 0 0 0 0 0 0 0 0.4 0"/>
<feBlend mode="normal" in2="shape" result="effect1_innerShadow_125_1454"/>
</filter>
<linearGradient id="paint0_linear_125_1454" x1="27.6152" y1="0.237671" x2="27.6152" y2="154.76" gradientUnits="userSpaceOnUse">
<stop stop-color="#FFCA62"/>
<stop offset="0.484375" stop-color="#FFEEC5"/>
<stop offset="1" stop-color="#FCD475"/>
</linearGradient>
<linearGradient id="paint1_linear_125_1454" x1="132.009" y1="0" x2="132.009" y2="155.005" gradientUnits="userSpaceOnUse">
<stop stop-color="#FFCA62"/>
<stop offset="0.484375" stop-color="#FFEEC5"/>
<stop offset="1" stop-color="#FCD475"/>
</linearGradient>
<linearGradient id="paint2_linear_125_1454" x1="79.9957" y1="32.923" x2="79.9957" y2="122.077" gradientUnits="userSpaceOnUse">
<stop stop-color="#FFCA62"/>
<stop offset="0.484375" stop-color="#FFEEC5"/>
<stop offset="1" stop-color="#FCD475"/>
</linearGradient>
<linearGradient id="paint3_linear_125_1454" x1="80.7198" y1="45.6842" x2="80.7198" y2="117.821" gradientUnits="userSpaceOnUse">
<stop stop-color="#FFCA62"/>
<stop offset="0.484375" stop-color="#FFEEC5"/>
<stop offset="1" stop-color="#FCD475"/>
</linearGradient>
</defs>
</svg>
