<svg width="34" height="35" viewBox="0 0 34 35" fill="none" xmlns="http://www.w3.org/2000/svg">
<path d="M30.3212 20.5748C30.6862 20.4936 31.0545 20.4239 31.4155 20.3278C31.9097 20.1964 32.4039 20.0591 32.889 19.8978C33.5956 19.663 33.9924 19.1034 33.996 18.3607C34 17.4411 33.9985 16.5214 33.9915 15.6015C33.9852 14.8996 33.5558 14.3177 32.8799 14.117C32.1221 13.8904 31.358 13.6901 30.5957 13.4826C30.188 13.3707 29.8904 13.1518 29.7319 12.7336C29.499 12.1218 29.2286 11.5246 28.975 10.921C28.8468 10.6169 28.8545 10.3183 29.0202 10.0305C29.4057 9.35672 29.7975 8.68652 30.1826 8.01179C30.6459 7.19976 30.5449 6.49829 29.8827 5.83942C29.2833 5.24459 28.686 4.6475 28.0908 4.04814C27.5721 3.52793 26.8809 3.38338 26.2237 3.72097C25.5338 4.07488 24.8648 4.46775 24.1944 4.86244C23.7659 5.11575 23.3605 5.17103 22.893 4.94129C22.3577 4.68126 21.8078 4.45235 21.246 4.25568C20.8443 4.11294 20.6382 3.84785 20.5349 3.45362C20.3324 2.68327 20.1313 1.9093 19.9007 1.14258C19.686 0.424352 19.1167 0.011991 18.3648 0.00610013C17.4534 -0.00160331 16.542 0.0165229 15.6311 0.000209734C14.939 -0.0120251 14.2722 0.512715 14.1051 1.13307C13.899 1.88801 13.6866 2.64113 13.4818 3.39879C13.3686 3.81659 13.1484 4.11657 12.7208 4.27743C12.1084 4.50854 11.5137 4.78541 10.909 5.036C10.5543 5.18236 10.2295 5.1162 9.89888 4.92045C9.21264 4.51262 8.52006 4.11385 7.81797 3.73321C7.19197 3.3938 6.47131 3.50664 5.96082 4.00509C5.29949 4.65581 4.64315 5.31196 3.99179 5.97355C3.46681 6.50554 3.40294 7.25051 3.8174 7.99775C4.17298 8.63668 4.54622 9.26655 4.90859 9.90095C5.12284 10.2775 5.15636 10.6504 4.96113 11.0628C4.69898 11.6139 4.46554 12.1782 4.26176 12.7535C4.11726 13.1649 3.8473 13.3725 3.44642 13.4785C2.67488 13.6806 1.90559 13.8921 1.13858 14.1129C0.812798 14.2048 0.52618 14.4012 0.32275 14.6718C0.11932 14.9424 0.0103264 15.2724 0.0125122 15.611C0.00934219 15.9812 0.00798416 16.3515 0.0125122 16.7212C0.0201378 16.8015 0.035305 16.8808 0.0578079 16.9582L0.337742 17.279L0.383038 17.274L0.648926 17.0072C0.666138 16.9507 0.677822 16.8927 0.683804 16.834C0.687428 16.4262 0.678822 16.0184 0.689693 15.6106C0.700111 15.2281 0.886734 14.9222 1.24503 14.8058C2.00147 14.5602 2.76472 14.3218 3.54064 14.151C4.21556 14.0019 4.65765 13.6525 4.89953 13.0109C5.11423 12.4435 5.33618 11.878 5.59211 11.3284C5.86026 10.7533 5.83716 10.1955 5.54681 9.6567C5.18082 8.97246 4.77678 8.30769 4.39855 7.6316C4.12043 7.13768 4.15803 6.78196 4.54984 6.38093C5.15621 5.76012 5.76997 5.14672 6.39113 4.54071C6.77253 4.16823 7.13128 4.12835 7.60417 4.3948C8.2667 4.76879 8.92622 5.14883 9.58271 5.53491C10.1462 5.8648 10.7061 5.89153 11.304 5.60515C11.8439 5.34685 12.4019 5.12119 12.965 4.91591C13.5538 4.70112 13.923 4.29148 14.0974 3.71418C14.3325 2.93658 14.5209 2.14494 14.7478 1.36463C14.8792 0.914201 15.2094 0.690347 15.6796 0.689441C16.562 0.689441 17.4443 0.689441 18.3267 0.689441C18.7724 0.689441 19.0899 0.916013 19.2326 1.33426C19.3111 1.56235 19.3812 1.79285 19.4428 2.02576C19.6036 2.63162 19.7332 3.24653 19.9216 3.84332C20.0896 4.37577 20.4701 4.72287 21.0087 4.91184C21.4911 5.08131 21.9767 5.25668 22.4292 5.49141C23.1141 5.84667 23.7754 5.89153 24.4521 5.50455C25.0863 5.14203 25.7168 4.77091 26.3546 4.41428C26.8945 4.11249 27.231 4.16732 27.6709 4.60642C28.2476 5.18251 28.8234 5.75906 29.398 6.33607C29.8333 6.77244 29.8863 7.11366 29.5792 7.65517C29.2023 8.32491 28.8092 8.98696 28.43 9.65489C28.1474 10.1502 28.1044 10.6627 28.3358 11.1933C28.5673 11.7239 28.7888 12.2609 29.0234 12.7911C29.1344 13.0426 29.2359 13.3068 29.3948 13.527C29.6625 13.8963 30.0743 14.0585 30.5019 14.1755C31.199 14.3658 31.8979 14.5479 32.5932 14.7442C33.0625 14.8769 33.3039 15.2086 33.3053 15.6958C33.3074 16.5486 33.3083 17.4014 33.308 18.2542C33.308 18.8243 33.0897 19.1197 32.5497 19.2842C32.0755 19.4283 31.6021 19.5756 31.1279 19.7219L30.3212 20.5748Z" fill="#468C80"/>
<path d="M30.3211 20.5748L31.1365 19.7215C30.8647 19.7763 30.5848 19.8189 30.3143 19.8892C29.7173 20.0441 29.3178 20.4166 29.1004 20.9989C28.8889 21.5631 28.6715 22.1268 28.4173 22.6724C28.1111 23.3303 28.1909 23.9371 28.5455 24.5438C28.9263 25.1937 29.2981 25.8489 29.6607 26.5096C29.8659 26.8825 29.8143 27.2505 29.5212 27.5518C28.8753 28.2164 28.2195 28.8727 27.554 29.5207C27.2274 29.8379 26.8714 29.8778 26.4741 29.6594C25.8074 29.2929 25.1469 28.9146 24.4929 28.5243C23.8981 28.1676 23.3129 28.1042 22.672 28.4205C22.1429 28.6741 21.6005 28.8989 21.0472 29.0939C20.399 29.3304 20.0339 29.794 19.8591 30.4383C19.6602 31.1706 19.4682 31.9052 19.2575 32.6343C19.1248 33.0951 18.7932 33.3267 18.3167 33.3271C17.4492 33.3271 16.582 33.3271 15.7154 33.3271C15.1967 33.3271 14.8769 33.0933 14.7374 32.5939C14.5236 31.8236 14.3252 31.0533 14.1114 30.2856C13.9556 29.7269 13.6132 29.3417 13.0569 29.1346C12.5007 28.9276 11.9404 28.7168 11.4059 28.4581C10.7409 28.1355 10.1186 28.1812 9.49482 28.5419C8.87109 28.9026 8.25733 29.262 7.63088 29.6086C7.10046 29.9023 6.75258 29.8402 6.33133 29.4156C5.75758 28.8365 5.18216 28.2592 4.60509 27.6837C4.17115 27.25 4.11362 26.9047 4.41756 26.365C4.79488 25.6953 5.1876 25.0328 5.56854 24.3658C5.85753 23.8605 5.88562 23.3426 5.6537 22.8042C5.38917 22.188 5.14728 21.5622 4.87596 20.9495C4.78459 20.7437 4.66087 20.5538 4.50951 20.3872C4.06787 19.9059 3.44822 19.8266 2.85348 19.6997C2.84714 19.6997 2.83536 19.7197 2.8263 19.7306C3.09808 20.0118 3.36865 20.2934 3.63801 20.5752C3.97238 20.7603 4.22231 21.0675 4.33558 21.4326C4.51676 21.9818 4.76136 22.511 5.00098 23.039C5.15725 23.3838 5.15363 23.7005 4.96519 24.0277C4.54711 24.7527 4.12314 25.4732 3.72725 26.2101C3.38888 26.8395 3.52115 27.5727 4.02983 28.0838C4.66398 28.7206 5.29812 29.355 5.93227 29.987C6.45046 30.5027 7.18426 30.6268 7.82611 30.2811C8.50238 29.9186 9.16733 29.5298 9.83183 29.1437C10.2436 28.904 10.6399 28.8519 11.0933 29.0667C11.6654 29.3386 12.266 29.5484 12.8522 29.7917C13.2146 29.9417 13.3894 30.2263 13.4863 30.6074C13.6915 31.423 13.8999 32.245 14.1766 33.0398C14.3868 33.6434 14.881 33.9756 15.5292 34.0005C15.9867 34.0182 16.4464 33.9715 16.9048 33.9724C17.394 33.9724 17.8828 34.0068 18.3715 34.0068C19.1144 34.0068 19.6933 33.5777 19.9016 32.8654C20.11 32.153 20.3048 31.4316 20.4955 30.712C20.6246 30.2258 20.8633 29.8764 21.3797 29.7042C21.9631 29.5094 22.5202 29.2343 23.0869 28.9892C23.4366 28.8374 23.7582 28.8958 24.078 29.0798C24.7887 29.4913 25.4975 29.9059 26.2187 30.2988C26.5079 30.4516 26.8383 30.5085 27.162 30.4612C27.4857 30.414 27.786 30.2651 28.0196 30.0359C28.687 29.3798 29.3486 28.7184 30.0045 28.0516C30.5028 27.5423 30.6124 26.8204 30.2763 26.1937C29.9044 25.5045 29.5063 24.8298 29.1163 24.1496C28.8925 23.759 28.8513 23.3793 29.0497 22.9479C29.3251 22.3484 29.5167 21.7103 29.7953 21.1126C29.8922 20.8942 30.1404 20.7492 30.3211 20.5748Z" fill="#468C80"/>
<path d="M3.638 20.5748C3.36622 20.2929 3.09565 20.0114 2.82629 19.7301C2.72727 19.6805 2.62549 19.6366 2.52145 19.5987C2.155 19.4863 1.78493 19.3857 1.41803 19.2742C0.919772 19.1229 0.695556 18.8102 0.689214 18.2923C0.686496 18.0462 0.667471 17.7997 0.655694 17.5537L0.387993 17.2745L0.342697 17.2795C0.249688 17.3861 0.15668 17.4928 0.0636716 17.5994C-0.112078 18.5646 0.0297005 19.5221 1.07695 19.8706C1.91448 20.1479 2.78281 20.3414 3.638 20.5748Z" fill="#468C80"/>
<path d="M0.0614289 17.5976C0.154739 17.4912 0.247748 17.3846 0.340454 17.2777L0.0605235 16.9568C0.0608254 17.1707 0.0611269 17.3843 0.0614289 17.5976Z" fill="#468C80"/>
<path d="M0.655701 17.5518C0.655701 17.3706 0.655701 17.1893 0.655701 17.0081L0.389812 17.275L0.655701 17.5518Z" fill="#468C80"/>
<path d="M9.08627 16.9627C9.08401 21.3555 12.6257 24.9249 16.9882 24.9249C21.3575 24.9249 24.9228 21.3718 24.9232 17.0153C24.925 15.9671 24.7184 14.9289 24.3156 13.9613C23.9128 12.9936 23.3217 12.1157 22.5767 11.3786C21.8317 10.6415 20.9476 10.0598 19.976 9.66756C19.0043 9.27526 17.9644 9.08011 16.9166 9.09344C12.5999 9.13332 9.14198 12.5922 9.08627 16.9627ZM9.7861 17.0289C9.76164 12.9995 13.0696 9.77225 17.0109 9.78132C21.0268 9.79083 24.1989 13.0566 24.2279 16.9501C24.2583 20.998 20.9285 24.2787 16.9198 24.2312C12.9913 24.1849 9.76209 20.9454 9.7861 17.0289Z" fill="#468C80"/>
</svg>
