<svg width="34" height="35" viewBox="0 0 34 35" fill="none" xmlns="http://www.w3.org/2000/svg">
<path d="M30.3212 20.5748C30.6863 20.4936 31.0546 20.4239 31.4156 20.3278C31.9098 20.1964 32.4039 20.0591 32.8891 19.8978C33.5957 19.663 33.9925 19.1034 33.9961 18.3607C34 17.4411 33.9985 16.5214 33.9916 15.6015C33.9852 14.8996 33.5558 14.3177 32.88 14.117C32.1222 13.8904 31.3581 13.6901 30.5957 13.4826C30.188 13.3707 29.8904 13.1518 29.7319 12.7336C29.4991 12.1218 29.2287 11.5246 28.975 10.921C28.8468 10.6169 28.8545 10.3183 29.0203 10.0305C29.4058 9.35672 29.7976 8.68652 30.1826 8.01179C30.646 7.19976 30.545 6.49829 29.8828 5.83942C29.2833 5.24459 28.686 4.6475 28.0908 4.04814C27.5722 3.52793 26.881 3.38338 26.2237 3.72097C25.5339 4.07488 24.8648 4.46775 24.1944 4.86244C23.7659 5.11575 23.3605 5.17103 22.8931 4.94129C22.3577 4.68126 21.8078 4.45235 21.2461 4.25568C20.8443 4.11294 20.6382 3.84785 20.535 3.45362C20.3325 2.68327 20.1314 1.9093 19.9008 1.14258C19.6861 0.424352 19.1167 0.011991 18.3648 0.00610013C17.4535 -0.00160331 16.5421 0.0165229 15.6312 0.000209734C14.9391 -0.0120251 14.2723 0.512715 14.1052 1.13307C13.8991 1.88801 13.6866 2.64113 13.4819 3.39879C13.3686 3.81659 13.1485 4.11657 12.7209 4.27743C12.1085 4.50854 11.5138 4.78541 10.909 5.036C10.5544 5.18236 10.2296 5.1162 9.89894 4.92045C9.2127 4.51262 8.52012 4.11385 7.81803 3.73321C7.19203 3.3938 6.47137 3.50664 5.96088 4.00509C5.29955 4.65581 4.64321 5.31196 3.99185 5.97355C3.46687 6.50554 3.403 7.25051 3.81746 7.99775C4.17304 8.63668 4.54628 9.26655 4.90865 9.90095C5.1229 10.2775 5.15642 10.6504 4.96119 11.0628C4.69904 11.6139 4.4656 12.1782 4.26182 12.7535C4.11732 13.1649 3.84736 13.3725 3.44649 13.4785C2.67494 13.6806 1.90565 13.8921 1.13864 14.1129C0.812859 14.2048 0.526241 14.4012 0.322811 14.6718C0.119381 14.9424 0.0103874 15.2724 0.0125732 15.611C0.00940323 15.9812 0.0080452 16.3515 0.0125732 16.7212C0.0201988 16.8015 0.0353661 16.8808 0.057869 16.9582L0.337803 17.279L0.383099 17.274L0.648987 17.0072C0.666199 16.9507 0.677883 16.8927 0.683865 16.834C0.687489 16.4262 0.678883 16.0184 0.689754 15.6106C0.700172 15.2281 0.886795 14.9222 1.24509 14.8058C2.00154 14.5602 2.76478 14.3218 3.5407 14.151C4.21562 14.0019 4.65771 13.6525 4.89959 13.0109C5.11429 12.4435 5.33624 11.878 5.59217 11.3284C5.86032 10.7533 5.83722 10.1955 5.54687 9.6567C5.18088 8.97246 4.77684 8.30769 4.39861 7.6316C4.12049 7.13768 4.15809 6.78196 4.5499 6.38093C5.15627 5.76012 5.77003 5.14672 6.3912 4.54071C6.77259 4.16823 7.13134 4.12835 7.60423 4.3948C8.26677 4.76879 8.92628 5.14883 9.58277 5.53491C10.1463 5.8648 10.7061 5.89153 11.304 5.60515C11.844 5.34685 12.402 5.12119 12.965 4.91591C13.5539 4.70112 13.9231 4.29148 14.0975 3.71418C14.3325 2.93658 14.521 2.14494 14.7479 1.36463C14.8793 0.914201 15.2095 0.690347 15.6796 0.689441C16.562 0.689441 17.4444 0.689441 18.3268 0.689441C18.7725 0.689441 19.09 0.916013 19.2327 1.33426C19.3112 1.56235 19.3813 1.79285 19.4429 2.02576C19.6037 2.63162 19.7332 3.24653 19.9216 3.84332C20.0897 4.37577 20.4702 4.72287 21.0088 4.91184C21.4912 5.08131 21.9767 5.25668 22.4292 5.49141C23.1141 5.84667 23.7755 5.89153 24.4522 5.50455C25.0863 5.14203 25.7169 4.77091 26.3546 4.41428C26.8946 4.11249 27.2311 4.16732 27.6709 4.60642C28.2477 5.18251 28.8234 5.75906 29.3981 6.33607C29.8334 6.77244 29.8864 7.11366 29.5793 7.65517C29.2024 8.32491 28.8092 8.98696 28.4301 9.65489C28.1474 10.1502 28.1044 10.6627 28.3359 11.1933C28.5673 11.7239 28.7888 12.2609 29.0235 12.7911C29.1345 13.0426 29.2359 13.3068 29.3949 13.527C29.6626 13.8963 30.0744 14.0585 30.5019 14.1755C31.1991 14.3658 31.898 14.5479 32.5933 14.7442C33.0625 14.8769 33.304 15.2086 33.3053 15.6958C33.3074 16.5486 33.3084 17.4014 33.3081 18.2542C33.3081 18.8243 33.0897 19.1197 32.5498 19.2842C32.0755 19.4283 31.6022 19.5756 31.1279 19.7219L30.3212 20.5748Z" fill="#FFE5A4"/>
<path d="M30.3212 20.5748L31.1366 19.7215C30.8648 19.7763 30.5848 19.8189 30.3144 19.8892C29.7174 20.0441 29.3179 20.4166 29.1005 20.9989C28.889 21.5631 28.6715 22.1268 28.4174 22.6724C28.1112 23.3303 28.1909 23.9371 28.5456 24.5438C28.9264 25.1937 29.2981 25.8489 29.6608 26.5096C29.866 26.8825 29.8144 27.2505 29.5213 27.5518C28.8754 28.2164 28.2196 28.8727 27.5541 29.5207C27.2275 29.8379 26.8715 29.8778 26.4742 29.6594C25.8075 29.2929 25.147 28.9146 24.493 28.5243C23.8982 28.1676 23.313 28.1042 22.672 28.4205C22.143 28.6741 21.6006 28.8989 21.0473 29.0939C20.3991 29.3304 20.034 29.794 19.8591 30.4383C19.6603 31.1706 19.4682 31.9052 19.2576 32.6343C19.1249 33.0951 18.7933 33.3267 18.3168 33.3271C17.4492 33.3271 16.5821 33.3271 15.7154 33.3271C15.1968 33.3271 14.877 33.0933 14.7375 32.5939C14.5237 31.8236 14.3253 31.0533 14.1115 30.2856C13.9557 29.7269 13.6132 29.3417 13.057 29.1346C12.5008 28.9276 11.9405 28.7168 11.406 28.4581C10.741 28.1355 10.1186 28.1812 9.49491 28.5419C8.87118 28.9026 8.25741 29.262 7.63096 29.6086C7.10054 29.9023 6.75267 29.8402 6.33141 29.4156C5.75766 28.8365 5.18225 28.2592 4.60517 27.6837C4.17123 27.25 4.11371 26.9047 4.41765 26.365C4.79496 25.6953 5.18768 25.0328 5.56862 24.3658C5.85762 23.8605 5.8857 23.3426 5.65378 22.8042C5.38925 22.188 5.14737 21.5622 4.87604 20.9495C4.78467 20.7437 4.66096 20.5538 4.5096 20.3872C4.06796 19.9059 3.44831 19.8266 2.85357 19.6997C2.84723 19.6997 2.83545 19.7197 2.82639 19.7306C3.09817 20.0118 3.36874 20.2934 3.6381 20.5752C3.97246 20.7603 4.22239 21.0675 4.33566 21.4326C4.51685 21.9818 4.76144 22.511 5.00106 23.039C5.15733 23.3838 5.15371 23.7005 4.96528 24.0277C4.54719 24.7527 4.12322 25.4732 3.72733 26.2101C3.38897 26.8395 3.52123 27.5727 4.02991 28.0838C4.66406 28.7206 5.2982 29.355 5.93235 29.987C6.45054 30.5027 7.18434 30.6268 7.82619 30.2811C8.50246 29.9186 9.16741 29.5298 9.83191 29.1437C10.2437 28.904 10.64 28.8519 11.0934 29.0667C11.6655 29.3386 12.2661 29.5484 12.8523 29.7917C13.2146 29.9417 13.3895 30.2263 13.4864 30.6074C13.6916 31.423 13.9 32.245 14.1767 33.0398C14.3869 33.6434 14.8811 33.9756 15.5293 34.0005C15.9868 34.0182 16.4465 33.9715 16.9049 33.9724C17.3941 33.9724 17.8829 34.0068 18.3716 34.0068C19.1145 34.0068 19.6934 33.5777 19.9017 32.8654C20.1101 32.153 20.3049 31.4316 20.4956 30.712C20.6247 30.2258 20.8634 29.8764 21.3797 29.7042C21.9632 29.5094 22.5203 29.2343 23.087 28.9892C23.4366 28.8374 23.7583 28.8958 24.078 29.0798C24.7887 29.4913 25.4976 29.9059 26.2187 30.2988C26.508 30.4516 26.8384 30.5085 27.1621 30.4612C27.4858 30.414 27.7861 30.2651 28.0197 30.0359C28.6871 29.3798 29.3487 28.7184 30.0046 28.0516C30.5029 27.5423 30.6125 26.8204 30.2764 26.1937C29.9045 25.5045 29.5063 24.8298 29.1163 24.1496C28.8926 23.759 28.8514 23.3793 29.0498 22.9479C29.3252 22.3484 29.5168 21.7103 29.7953 21.1126C29.8923 20.8942 30.1405 20.7492 30.3212 20.5748Z" fill="#FFE5A4"/>
<path d="M3.63807 20.5748C3.36629 20.2929 3.09572 20.0113 2.82636 19.7301C2.72733 19.6805 2.62555 19.6366 2.52151 19.5987C2.15507 19.4863 1.785 19.3857 1.4181 19.2742C0.919837 19.1229 0.695621 18.8102 0.689279 18.2923C0.686561 18.0462 0.667536 17.7997 0.655759 17.5536L0.388058 17.2745L0.342762 17.2795C0.249753 17.3861 0.156745 17.4928 0.0637364 17.5994C-0.112013 18.5646 0.0297654 19.5221 1.07702 19.8706C1.91454 20.1479 2.78287 20.3414 3.63807 20.5748Z" fill="#FFE5A4"/>
<path d="M0.0614823 17.5976C0.154793 17.4913 0.247801 17.3846 0.340508 17.2777L0.0605769 16.9568C0.0608788 17.1707 0.0611803 17.3843 0.0614823 17.5976Z" fill="#FFE5A4"/>
<path d="M0.655773 17.5518C0.655773 17.3706 0.655773 17.1893 0.655773 17.0081L0.389884 17.275L0.655773 17.5518Z" fill="#FFE5A4"/>
<path d="M9.08634 16.9627C9.08407 21.3555 12.6258 24.9249 16.9883 24.9249C21.3576 24.9249 24.9228 21.3718 24.9233 17.0153C24.925 15.9671 24.7185 14.9289 24.3157 13.9613C23.9128 12.9936 23.3217 12.1157 22.5767 11.3786C21.8317 10.6415 20.9477 10.0598 19.976 9.66756C19.0044 9.27526 17.9644 9.08011 16.9167 9.09344C12.6 9.13332 9.14205 12.5922 9.08634 16.9627ZM9.78617 17.0289C9.76171 12.9995 13.0697 9.77225 17.0109 9.78132C21.0269 9.79083 24.199 13.0566 24.228 16.9501C24.2583 20.998 20.9286 24.2787 16.9199 24.2312C12.9913 24.1849 9.76216 20.9454 9.78617 17.0289Z" fill="#FFE5A4"/>
</svg>
