<svg width="169" height="28" viewBox="0 0 169 28" fill="none" xmlns="http://www.w3.org/2000/svg">
<g filter="url(#filter0_d_1_68)">
<path d="M2.989 4.958C2.989 4.09933 3.196 3.40933 3.61 2.888C4.024 2.36667 4.54533 1.96033 5.174 1.669C5.818 1.37767 6.51567 1.186 7.267 1.094C8.01833 1.002 8.73133 0.955998 9.406 0.955998C9.89667 0.955998 10.4947 0.994332 11.2 1.071C11.9053 1.13233 12.5877 1.278 13.247 1.508C13.9063 1.738 14.466 2.06 14.926 2.474C15.4013 2.888 15.639 3.44 15.639 4.13C15.639 4.88133 15.4013 5.45633 14.926 5.855C14.466 6.23833 13.868 6.43 13.132 6.43C12.6413 6.43 12.1507 6.37633 11.66 6.269C11.1693 6.14633 10.6787 6.085 10.188 6.085C9.74333 6.085 9.37533 6.23833 9.084 6.545C8.79267 6.83633 8.647 7.22733 8.647 7.718C8.647 7.948 8.693 8.12433 8.785 8.247C8.89233 8.35433 9.02267 8.431 9.176 8.477C9.32933 8.523 9.498 8.546 9.682 8.546C9.88133 8.546 10.0653 8.546 10.234 8.546C10.6173 8.546 10.993 8.53067 11.361 8.5C11.729 8.46933 12.097 8.454 12.465 8.454C12.649 8.454 12.8483 8.46167 13.063 8.477C13.293 8.49233 13.5 8.53833 13.684 8.615C13.8833 8.67633 14.0443 8.776 14.167 8.914C14.305 9.052 14.374 9.24367 14.374 9.489C14.374 9.73433 14.305 9.926 14.167 10.064C14.0443 10.1867 13.891 10.2787 13.707 10.34C13.523 10.4013 13.3237 10.4397 13.109 10.455C12.8943 10.4703 12.7027 10.478 12.534 10.478C12.304 10.478 12.0127 10.455 11.66 10.409C11.3227 10.363 10.9777 10.34 10.625 10.34C10.1803 10.34 9.797 10.4167 9.475 10.57C9.153 10.708 8.992 11.007 8.992 11.467C8.992 11.9883 9.13 12.5787 9.406 13.238C9.69733 13.882 10.0117 14.5643 10.349 15.285C10.7017 15.9903 11.0237 16.7033 11.315 17.424C11.6063 18.1447 11.7597 18.8423 11.775 19.517V19.609C11.775 20.253 11.6217 20.828 11.315 21.334C11.0237 21.8553 10.6327 22.3 10.142 22.668C9.66667 23.036 9.13 23.3197 8.532 23.519C7.94933 23.7183 7.36667 23.818 6.784 23.818C6.094 23.818 5.473 23.6953 4.921 23.45C4.369 23.22 3.89367 22.898 3.495 22.484C3.11167 22.07 2.81267 21.5793 2.598 21.012C2.39867 20.4447 2.299 19.8237 2.299 19.149C2.299 18.459 2.38333 17.7843 2.552 17.125C2.736 16.4657 2.93533 15.8063 3.15 15.147C3.36467 14.4877 3.55633 13.8283 3.725 13.169C3.909 12.4943 4.001 11.8043 4.001 11.099C4.001 10.5623 3.94733 10.041 3.84 9.535C3.73267 9.029 3.61767 8.523 3.495 8.017C3.37233 7.511 3.25733 7.005 3.15 6.499C3.04267 5.993 2.989 5.47933 2.989 4.958ZM27.491 12.709C27.491 12.8777 27.6367 13.0923 27.928 13.353C28.2347 13.6137 28.6103 13.9127 29.055 14.25C29.4997 14.572 29.9827 14.9323 30.504 15.331C31.0407 15.7297 31.5313 16.1513 31.976 16.596C32.4207 17.0407 32.7887 17.5083 33.08 17.999C33.3867 18.4897 33.54 18.9957 33.54 19.517C33.54 20.0077 33.4173 20.4677 33.172 20.897C32.942 21.3417 32.6353 21.7327 32.252 22.07C31.884 22.4073 31.4623 22.6757 30.987 22.875C30.527 23.0743 30.067 23.174 29.607 23.174C29.3157 23.174 29.0167 23.151 28.71 23.105C28.4187 23.0743 28.135 23.0053 27.859 22.898C27.5983 22.7907 27.353 22.645 27.123 22.461C26.9083 22.277 26.7243 22.0393 26.571 21.748C26.433 21.5027 26.3103 21.1423 26.203 20.667C26.111 20.1917 26.019 19.678 25.927 19.126C25.835 18.5587 25.743 17.976 25.651 17.378C25.559 16.78 25.444 16.2433 25.306 15.768C25.1833 15.2773 25.03 14.8787 24.846 14.572C24.6773 14.2653 24.4627 14.112 24.202 14.112C23.9413 14.112 23.719 14.204 23.535 14.388C23.351 14.572 23.259 14.7943 23.259 15.055C23.259 15.4843 23.3587 15.8907 23.558 16.274C23.7573 16.642 23.972 17.01 24.202 17.378C24.432 17.7307 24.6467 18.0987 24.846 18.482C25.0453 18.8653 25.145 19.287 25.145 19.747C25.145 20.2837 25.0147 20.782 24.754 21.242C24.5087 21.7173 24.179 22.1237 23.765 22.461C23.3663 22.7983 22.9063 23.059 22.385 23.243C21.879 23.4423 21.373 23.542 20.867 23.542C19.717 23.542 18.7893 23.266 18.084 22.714C17.3787 22.1773 17.0107 21.334 16.98 20.184V20C16.98 19.494 17.0567 19.0033 17.21 18.528C17.3787 18.0373 17.555 17.5543 17.739 17.079C17.9383 16.6037 18.1147 16.1283 18.268 15.653C18.4367 15.1623 18.521 14.664 18.521 14.158C18.521 13.4833 18.4443 12.8317 18.291 12.203C18.153 11.559 17.992 10.9227 17.808 10.294C17.624 9.65 17.4553 9.006 17.302 8.362C17.164 7.718 17.095 7.05867 17.095 6.384C17.095 5.61733 17.2483 4.91967 17.555 4.291C17.8617 3.647 18.268 3.095 18.774 2.635C19.28 2.175 19.8627 1.82233 20.522 1.577C21.1967 1.31633 21.902 1.186 22.638 1.186C23.604 1.186 24.57 1.33933 25.536 1.646C26.5173 1.93733 27.3913 2.37433 28.158 2.957C28.9247 3.52433 29.5457 4.22967 30.021 5.073C30.5117 5.91633 30.757 6.89 30.757 7.994C30.757 8.822 30.5883 9.49667 30.251 10.018C29.9137 10.524 29.538 10.9457 29.124 11.283C28.71 11.605 28.3343 11.8733 27.997 12.088C27.6597 12.2873 27.491 12.4943 27.491 12.709ZM22.661 8.707C22.661 8.891 22.6687 9.121 22.684 9.397C22.7147 9.65767 22.7683 9.91067 22.845 10.156C22.9217 10.386 23.0367 10.5853 23.19 10.754C23.3433 10.9227 23.5503 11.007 23.811 11.007C24.0103 11.007 24.2097 10.938 24.409 10.8C24.6083 10.6467 24.7923 10.4627 24.961 10.248C25.1297 10.0333 25.2677 9.80333 25.375 9.558C25.4823 9.31267 25.536 9.09033 25.536 8.891C25.536 8.67633 25.49 8.46933 25.398 8.27C25.3213 8.07067 25.2063 7.89433 25.053 7.741C24.915 7.58767 24.7463 7.465 24.547 7.373C24.363 7.281 24.1713 7.235 23.972 7.235C23.5733 7.235 23.2513 7.396 23.006 7.718C22.776 8.02467 22.661 8.35433 22.661 8.707ZM43.0412 1.6C43.8845 1.6 44.6742 1.761 45.4102 2.083C46.1615 2.38967 46.8438 2.81133 47.4572 3.348C48.0705 3.88467 48.6148 4.521 49.0902 5.257C49.5655 5.97767 49.9642 6.75967 50.2862 7.603C50.6235 8.44633 50.8765 9.32033 51.0452 10.225C51.2292 11.1297 51.3212 12.0267 51.3212 12.916C51.3212 14.2347 51.1142 15.4997 50.7002 16.711C50.3015 17.907 49.7188 18.965 48.9522 19.885C48.2008 20.7897 47.2732 21.5103 46.1692 22.047C45.0805 22.5837 43.8385 22.852 42.4432 22.852C41.2472 22.852 40.1662 22.622 39.2002 22.162C38.2495 21.7173 37.4368 21.081 36.7622 20.253C36.1028 19.4403 35.5892 18.4743 35.2212 17.355C34.8685 16.2203 34.6922 14.986 34.6922 13.652C34.6922 12.0573 34.8992 10.5393 35.3132 9.098C35.7272 7.64133 36.3022 6.361 37.0382 5.257C37.7895 4.13767 38.6712 3.24833 39.6832 2.589C40.7105 1.92967 41.8298 1.6 43.0412 1.6ZM40.6032 10.915C40.6032 11.4977 40.8255 11.9807 41.2702 12.364C41.7302 12.7473 42.3205 12.939 43.0412 12.939C43.6852 12.939 44.1912 12.7703 44.5592 12.433C44.9425 12.0803 45.1342 11.6127 45.1342 11.03C45.1342 10.708 45.0728 10.409 44.9502 10.133C44.8428 9.857 44.6895 9.61933 44.4902 9.42C44.2908 9.20533 44.0532 9.04433 43.7772 8.937C43.5165 8.81433 43.2252 8.753 42.9032 8.753C42.5812 8.753 42.2822 8.81433 42.0062 8.937C41.7302 9.04433 41.4848 9.19767 41.2702 9.397C41.0708 9.581 40.9098 9.80333 40.7872 10.064C40.6645 10.3247 40.6032 10.6083 40.6032 10.915ZM52.9861 12.525C52.9861 10.7923 53.1778 9.25133 53.5611 7.902C53.9445 6.53733 54.4888 5.38733 55.1941 4.452C55.9148 3.51667 56.7888 2.80367 57.8161 2.313C58.8435 1.807 59.9935 1.554 61.2661 1.554C62.0481 1.554 62.7841 1.63833 63.4742 1.807C64.1642 1.96033 64.7622 2.198 65.2682 2.52C65.7742 2.82667 66.1728 3.20233 66.4642 3.647C66.7708 4.09167 66.9241 4.59767 66.9241 5.165C66.9241 5.79367 66.5715 6.29967 65.8661 6.683C65.1762 7.051 64.2562 7.235 63.1062 7.235C62.4315 7.235 61.7798 7.28867 61.1511 7.396C60.5378 7.50333 59.9935 7.71033 59.5181 8.017C59.0428 8.32367 58.6595 8.753 58.3681 9.305C58.0921 9.84167 57.9541 10.547 57.9541 11.421C57.9541 11.789 58.0231 12.1417 58.1611 12.479C58.2991 12.801 58.4908 13.0923 58.7361 13.353C58.9968 13.5983 59.3111 13.7977 59.6791 13.951C60.0625 14.089 60.4841 14.158 60.9441 14.158C61.3428 14.158 61.7415 14.1043 62.1402 13.997C62.5388 13.8897 62.8992 13.7517 63.2212 13.583C63.5432 13.4143 63.8038 13.2227 64.0032 13.008C64.2025 12.7933 64.3022 12.5863 64.3022 12.387C64.3022 11.9423 63.8422 11.72 62.9221 11.72C62.6615 11.72 62.3855 11.7353 62.0942 11.766C61.8182 11.7967 61.5498 11.812 61.2891 11.812C60.7218 11.812 60.3078 11.7123 60.0471 11.513C59.8018 11.2983 59.6791 10.9687 59.6791 10.524C59.6791 10.0793 59.7865 9.72667 60.0011 9.466C60.2311 9.20533 60.5148 9.01367 60.8521 8.891C61.1895 8.76833 61.5498 8.69167 61.9332 8.661C62.3165 8.63033 62.6768 8.615 63.0141 8.615C64.1795 8.615 65.1915 8.67633 66.0501 8.799C66.9241 8.92167 67.6525 9.19 68.2352 9.604C68.8178 10.0027 69.2548 10.5777 69.5462 11.329C69.8375 12.0803 69.9832 13.0923 69.9832 14.365C69.9832 15.6683 69.7608 16.9027 69.3162 18.068C68.8715 19.218 68.2505 20.23 67.4531 21.104C66.6558 21.978 65.7051 22.668 64.6011 23.174C63.5125 23.68 62.3088 23.933 60.9902 23.933C59.6868 23.933 58.5368 23.6493 57.5401 23.082C56.5435 22.53 55.7078 21.748 55.0331 20.736C54.3585 19.7393 53.8448 18.5433 53.4921 17.148C53.1548 15.7373 52.9861 14.1963 52.9861 12.525ZM71.4652 13.422C71.4652 12.5173 71.5189 11.5973 71.6262 10.662C71.7489 9.72667 71.9405 8.81433 72.2012 7.925C72.4619 7.03567 72.8069 6.2 73.2362 5.418C73.6655 4.62067 74.1945 3.93067 74.8232 3.348C75.4519 2.75 76.1802 2.28233 77.0082 1.945C77.8515 1.59233 78.8175 1.416 79.9062 1.416C80.3662 1.416 80.9029 1.47733 81.5162 1.6C82.1449 1.70733 82.7352 1.899 83.2872 2.175C83.8545 2.43567 84.3299 2.78067 84.7132 3.21C85.1119 3.624 85.3112 4.13 85.3112 4.728C85.3112 5.142 85.1962 5.464 84.9662 5.694C84.7362 5.924 84.4295 6.108 84.0462 6.246C83.6629 6.384 83.2259 6.49133 82.7352 6.568C82.2599 6.62933 81.7692 6.706 81.2632 6.798C80.7572 6.89 80.2589 7.01267 79.7682 7.166C79.2929 7.31933 78.8635 7.54167 78.4802 7.833C78.0969 8.12433 77.7902 8.50767 77.5602 8.983C77.3302 9.443 77.2152 10.041 77.2152 10.777C77.2152 11.1297 77.2459 11.467 77.3072 11.789C77.3839 12.0957 77.4989 12.3717 77.6522 12.617C77.8209 12.847 78.0355 13.031 78.2962 13.169C78.5569 13.307 78.8865 13.376 79.2852 13.376C79.6992 13.376 80.1055 13.3223 80.5042 13.215C80.9182 13.0923 81.3245 12.962 81.7232 12.824C82.1219 12.686 82.5205 12.5633 82.9192 12.456C83.3332 12.3333 83.7549 12.272 84.1842 12.272C84.7209 12.272 85.1502 12.364 85.4722 12.548C85.8095 12.7167 86.0625 12.9543 86.2312 13.261C86.3999 13.5523 86.5072 13.905 86.5532 14.319C86.6145 14.7177 86.6452 15.1547 86.6452 15.63C86.6452 18.0067 86.0472 19.862 84.8512 21.196C83.6705 22.5453 81.8689 23.22 79.4462 23.22C77.8822 23.22 76.5865 22.967 75.5592 22.461C74.5472 21.9703 73.7345 21.2803 73.1212 20.391C72.5079 19.517 72.0785 18.482 71.8332 17.286C71.5879 16.09 71.4652 14.802 71.4652 13.422ZM98.3759 12.709C98.3759 12.8777 98.5216 13.0923 98.8129 13.353C99.1196 13.6137 99.4953 13.9127 99.9399 14.25C100.385 14.572 100.868 14.9323 101.389 15.331C101.926 15.7297 102.416 16.1513 102.861 16.596C103.306 17.0407 103.674 17.5083 103.965 17.999C104.272 18.4897 104.425 18.9957 104.425 19.517C104.425 20.0077 104.302 20.4677 104.057 20.897C103.827 21.3417 103.52 21.7327 103.137 22.07C102.769 22.4073 102.347 22.6757 101.872 22.875C101.412 23.0743 100.952 23.174 100.492 23.174C100.201 23.174 99.9016 23.151 99.5949 23.105C99.3036 23.0743 99.0199 23.0053 98.7439 22.898C98.4833 22.7907 98.2379 22.645 98.0079 22.461C97.7933 22.277 97.6093 22.0393 97.4559 21.748C97.3179 21.5027 97.1953 21.1423 97.0879 20.667C96.9959 20.1917 96.9039 19.678 96.8119 19.126C96.7199 18.5587 96.6279 17.976 96.5359 17.378C96.4439 16.78 96.3289 16.2433 96.1909 15.768C96.0683 15.2773 95.9149 14.8787 95.7309 14.572C95.5623 14.2653 95.3476 14.112 95.0869 14.112C94.8263 14.112 94.6039 14.204 94.4199 14.388C94.2359 14.572 94.1439 14.7943 94.1439 15.055C94.1439 15.4843 94.2436 15.8907 94.4429 16.274C94.6423 16.642 94.8569 17.01 95.0869 17.378C95.3169 17.7307 95.5316 18.0987 95.7309 18.482C95.9303 18.8653 96.0299 19.287 96.0299 19.747C96.0299 20.2837 95.8996 20.782 95.6389 21.242C95.3936 21.7173 95.0639 22.1237 94.6499 22.461C94.2513 22.7983 93.7913 23.059 93.2699 23.243C92.7639 23.4423 92.2579 23.542 91.7519 23.542C90.6019 23.542 89.6743 23.266 88.9689 22.714C88.2636 22.1773 87.8956 21.334 87.8649 20.184V20C87.8649 19.494 87.9416 19.0033 88.0949 18.528C88.2636 18.0373 88.4399 17.5543 88.6239 17.079C88.8233 16.6037 88.9996 16.1283 89.1529 15.653C89.3216 15.1623 89.4059 14.664 89.4059 14.158C89.4059 13.4833 89.3293 12.8317 89.1759 12.203C89.0379 11.559 88.8769 10.9227 88.6929 10.294C88.5089 9.65 88.3403 9.006 88.1869 8.362C88.0489 7.718 87.9799 7.05867 87.9799 6.384C87.9799 5.61733 88.1333 4.91967 88.4399 4.291C88.7466 3.647 89.1529 3.095 89.6589 2.635C90.1649 2.175 90.7476 1.82233 91.4069 1.577C92.0816 1.31633 92.7869 1.186 93.5229 1.186C94.4889 1.186 95.4549 1.33933 96.4209 1.646C97.4023 1.93733 98.2763 2.37433 99.0429 2.957C99.8096 3.52433 100.431 4.22967 100.906 5.073C101.397 5.91633 101.642 6.89 101.642 7.994C101.642 8.822 101.473 9.49667 101.136 10.018C100.799 10.524 100.423 10.9457 100.009 11.283C99.5949 11.605 99.2193 11.8733 98.8819 12.088C98.5446 12.2873 98.3759 12.4943 98.3759 12.709ZM93.5459 8.707C93.5459 8.891 93.5536 9.121 93.5689 9.397C93.5996 9.65767 93.6533 9.91067 93.7299 10.156C93.8066 10.386 93.9216 10.5853 94.0749 10.754C94.2283 10.9227 94.4353 11.007 94.6959 11.007C94.8953 11.007 95.0946 10.938 95.2939 10.8C95.4933 10.6467 95.6773 10.4627 95.8459 10.248C96.0146 10.0333 96.1526 9.80333 96.2599 9.558C96.3673 9.31267 96.4209 9.09033 96.4209 8.891C96.4209 8.67633 96.3749 8.46933 96.2829 8.27C96.2063 8.07067 96.0913 7.89433 95.9379 7.741C95.7999 7.58767 95.6313 7.465 95.4319 7.373C95.2479 7.281 95.0563 7.235 94.8569 7.235C94.4583 7.235 94.1363 7.396 93.8909 7.718C93.6609 8.02467 93.5459 8.35433 93.5459 8.707ZM110.552 7.442C110.674 7.442 110.774 7.304 110.851 7.028C110.943 6.73667 111.042 6.37633 111.15 5.947C111.257 5.50233 111.38 5.03467 111.518 4.544C111.656 4.038 111.824 3.57033 112.024 3.141C112.238 2.69633 112.491 2.336 112.783 2.06C113.089 1.76867 113.457 1.623 113.887 1.623C114.285 1.623 114.661 1.68433 115.014 1.807C115.382 1.92967 115.711 2.12133 116.003 2.382C116.294 2.62733 116.524 2.934 116.693 3.302C116.861 3.65467 116.946 4.07633 116.946 4.567C116.946 5.04233 116.846 5.50233 116.647 5.947C116.463 6.37633 116.233 6.80567 115.957 7.235C115.681 7.66433 115.374 8.09367 115.037 8.523C114.699 8.95233 114.393 9.397 114.117 9.857C113.841 10.317 113.603 10.8 113.404 11.306C113.22 11.7967 113.128 12.3257 113.128 12.893C113.128 13.4297 113.243 13.9433 113.473 14.434C113.703 14.9247 113.956 15.4077 114.232 15.883C114.523 16.3583 114.784 16.8337 115.014 17.309C115.244 17.7843 115.359 18.2827 115.359 18.804C115.359 19.402 115.228 19.908 114.968 20.322C114.707 20.7513 114.37 21.0963 113.956 21.357C113.542 21.633 113.074 21.8323 112.553 21.955C112.031 22.0777 111.51 22.139 110.989 22.139C110.513 22.139 110.007 22.0777 109.471 21.955C108.934 21.8477 108.436 21.6637 107.976 21.403C107.516 21.1423 107.132 20.782 106.826 20.322C106.534 19.8773 106.389 19.3253 106.389 18.666C106.389 18.298 106.504 17.884 106.734 17.424C106.964 16.9487 107.217 16.458 107.493 15.952C107.769 15.446 108.022 14.9477 108.252 14.457C108.482 13.951 108.597 13.4987 108.597 13.1C108.597 12.5787 108.482 12.0803 108.252 11.605C108.022 11.1143 107.73 10.6467 107.378 10.202C107.025 9.742 106.649 9.29733 106.251 8.868C105.852 8.43867 105.476 8.00933 105.124 7.58C104.771 7.15067 104.48 6.72133 104.25 6.292C104.02 5.86267 103.905 5.418 103.905 4.958C103.905 4.51333 104.012 4.107 104.227 3.739C104.441 3.35567 104.71 3.01833 105.032 2.727C105.354 2.43567 105.706 2.21333 106.09 2.06C106.488 1.89133 106.856 1.807 107.194 1.807C107.638 1.807 108.014 1.945 108.321 2.221C108.627 2.497 108.88 2.84967 109.08 3.279C109.294 3.693 109.471 4.14533 109.609 4.636C109.747 5.11133 109.862 5.56367 109.954 5.993C110.061 6.407 110.153 6.752 110.23 7.028C110.322 7.304 110.429 7.442 110.552 7.442ZM118.738 4.958C118.738 4.09933 118.899 3.40933 119.221 2.888C119.559 2.36667 119.996 1.96033 120.532 1.669C121.084 1.37767 121.705 1.186 122.395 1.094C123.101 1.002 123.829 0.955998 124.58 0.955998C125.776 0.955998 126.85 1.117 127.8 1.439C128.751 1.761 129.556 2.21333 130.215 2.796C130.875 3.36333 131.381 4.03033 131.733 4.797C132.086 5.56367 132.262 6.39933 132.262 7.304C132.262 8.14733 132.17 8.95233 131.986 9.719C131.802 10.4703 131.534 11.1373 131.181 11.72C130.829 12.2873 130.392 12.7397 129.87 13.077C129.364 13.4143 128.774 13.583 128.099 13.583C127.685 13.583 127.356 13.56 127.11 13.514C126.865 13.468 126.65 13.422 126.466 13.376C126.282 13.33 126.114 13.284 125.96 13.238C125.822 13.192 125.646 13.169 125.431 13.169C125.278 13.169 125.155 13.1997 125.063 13.261C124.987 13.3223 124.933 13.3913 124.902 13.468C124.872 13.5447 124.849 13.6213 124.833 13.698C124.833 13.7747 124.833 13.836 124.833 13.882C124.833 14.4187 124.948 14.871 125.178 15.239C125.408 15.607 125.654 15.975 125.914 16.343C126.19 16.6957 126.443 17.0943 126.673 17.539C126.903 17.9837 127.018 18.5433 127.018 19.218C127.018 19.862 126.888 20.4447 126.627 20.966C126.382 21.5027 126.052 21.9627 125.638 22.346C125.224 22.7447 124.749 23.0513 124.212 23.266C123.676 23.4807 123.116 23.588 122.533 23.588C121.843 23.588 121.222 23.4653 120.67 23.22C120.118 22.99 119.643 22.668 119.244 22.254C118.861 21.84 118.562 21.3493 118.347 20.782C118.148 20.2147 118.048 19.5937 118.048 18.919C118.048 18.229 118.133 17.562 118.301 16.918C118.485 16.274 118.685 15.6377 118.899 15.009C119.114 14.3803 119.306 13.7517 119.474 13.123C119.658 12.479 119.75 11.8043 119.75 11.099C119.75 10.5777 119.697 10.064 119.589 9.558C119.482 9.052 119.367 8.546 119.244 8.04C119.122 7.534 119.007 7.028 118.899 6.522C118.792 6.00067 118.738 5.47933 118.738 4.958ZM125.868 8.546C126.344 8.546 126.735 8.431 127.041 8.201C127.363 7.95567 127.524 7.65667 127.524 7.304C127.524 6.96667 127.379 6.683 127.087 6.453C126.811 6.223 126.474 6.108 126.075 6.108C125.861 6.108 125.654 6.14633 125.454 6.223C125.255 6.29967 125.079 6.39933 124.925 6.522C124.772 6.64467 124.649 6.79033 124.557 6.959C124.465 7.11233 124.419 7.281 124.419 7.465C124.419 7.77167 124.55 8.03233 124.81 8.247C125.086 8.44633 125.439 8.546 125.868 8.546ZM141.959 1.6C142.404 1.6 142.894 1.60767 143.431 1.623C143.983 1.63833 144.535 1.67667 145.087 1.738C145.639 1.784 146.176 1.86833 146.697 1.991C147.218 2.11367 147.686 2.28233 148.1 2.497C148.606 2.773 148.966 3.08733 149.181 3.44C149.411 3.77733 149.526 4.23733 149.526 4.82C149.526 5.47933 149.396 6.02367 149.135 6.453C148.89 6.88233 148.407 7.097 147.686 7.097C147.349 7.097 147.05 7.051 146.789 6.959C146.544 6.867 146.314 6.76733 146.099 6.66C145.9 6.53733 145.7 6.43 145.501 6.338C145.317 6.246 145.118 6.2 144.903 6.2C144.719 6.2 144.566 6.269 144.443 6.407C144.336 6.52967 144.244 6.69067 144.167 6.89C144.106 7.074 144.06 7.281 144.029 7.511C144.014 7.741 144.006 7.95567 144.006 8.155C144.006 9.075 144.152 9.972 144.443 10.846C144.734 11.7047 145.056 12.571 145.409 13.445C145.762 14.3037 146.084 15.17 146.375 16.044C146.666 16.9027 146.812 17.7843 146.812 18.689C146.812 19.425 146.666 20.069 146.375 20.621C146.084 21.173 145.693 21.633 145.202 22.001C144.727 22.369 144.175 22.6373 143.546 22.806C142.933 22.99 142.296 23.082 141.637 23.082C140.978 23.082 140.334 22.99 139.705 22.806C139.076 22.6373 138.517 22.369 138.026 22.001C137.535 21.633 137.137 21.173 136.83 20.621C136.539 20.069 136.385 19.425 136.37 18.689V18.597C136.37 17.6923 136.508 16.8107 136.784 15.952C137.075 15.0933 137.39 14.2347 137.727 13.376C138.08 12.5173 138.394 11.6587 138.67 10.8C138.961 9.926 139.107 9.03667 139.107 8.132C139.107 7.87133 139.107 7.61833 139.107 7.373C139.122 7.12767 139.107 6.90533 139.061 6.706C139.015 6.50667 138.915 6.35333 138.762 6.246C138.624 6.12333 138.402 6.062 138.095 6.062C137.85 6.062 137.62 6.108 137.405 6.2C137.19 6.292 136.968 6.39933 136.738 6.522C136.523 6.62933 136.301 6.729 136.071 6.821C135.841 6.913 135.588 6.959 135.312 6.959C134.668 6.959 134.162 6.78267 133.794 6.43C133.426 6.062 133.242 5.54067 133.242 4.866C133.242 4.28333 133.403 3.80033 133.725 3.417C134.062 3.03367 134.484 2.727 134.99 2.497C135.511 2.25167 136.094 2.06767 136.738 1.945C137.397 1.82233 138.049 1.738 138.693 1.692C139.337 1.63067 139.95 1.6 140.533 1.6C141.116 1.6 141.591 1.6 141.959 1.6ZM158.274 1.6C159.117 1.6 159.907 1.761 160.643 2.083C161.394 2.38967 162.077 2.81133 162.69 3.348C163.303 3.88467 163.848 4.521 164.323 5.257C164.798 5.97767 165.197 6.75967 165.519 7.603C165.856 8.44633 166.109 9.32033 166.278 10.225C166.462 11.1297 166.554 12.0267 166.554 12.916C166.554 14.2347 166.347 15.4997 165.933 16.711C165.534 17.907 164.952 18.965 164.185 19.885C163.434 20.7897 162.506 21.5103 161.402 22.047C160.313 22.5837 159.071 22.852 157.676 22.852C156.48 22.852 155.399 22.622 154.433 22.162C153.482 21.7173 152.67 21.081 151.995 20.253C151.336 19.4403 150.822 18.4743 150.454 17.355C150.101 16.2203 149.925 14.986 149.925 13.652C149.925 12.0573 150.132 10.5393 150.546 9.098C150.96 7.64133 151.535 6.361 152.271 5.257C153.022 4.13767 153.904 3.24833 154.916 2.589C155.943 1.92967 157.063 1.6 158.274 1.6ZM155.836 10.915C155.836 11.4977 156.058 11.9807 156.503 12.364C156.963 12.7473 157.553 12.939 158.274 12.939C158.918 12.939 159.424 12.7703 159.792 12.433C160.175 12.0803 160.367 11.6127 160.367 11.03C160.367 10.708 160.306 10.409 160.183 10.133C160.076 9.857 159.922 9.61933 159.723 9.42C159.524 9.20533 159.286 9.04433 159.01 8.937C158.749 8.81433 158.458 8.753 158.136 8.753C157.814 8.753 157.515 8.81433 157.239 8.937C156.963 9.04433 156.718 9.19767 156.503 9.397C156.304 9.581 156.143 9.80333 156.02 10.064C155.897 10.3247 155.836 10.6083 155.836 10.915Z" fill="url(#paint0_linear_1_68)"/>
</g>
<defs>
<filter id="filter0_d_1_68" x="0.299072" y="0.956055" width="168.255" height="26.9769" filterUnits="userSpaceOnUse" color-interpolation-filters="sRGB">
<feFlood flood-opacity="0" result="BackgroundImageFix"/>
<feColorMatrix in="SourceAlpha" type="matrix" values="0 0 0 0 0 0 0 0 0 0 0 0 0 0 0 0 0 0 127 0" result="hardAlpha"/>
<feOffset dy="2"/>
<feGaussianBlur stdDeviation="1"/>
<feComposite in2="hardAlpha" operator="out"/>
<feColorMatrix type="matrix" values="0 0 0 0 0 0 0 0 0 0 0 0 0 0 0 0 0 0 0.5 0"/>
<feBlend mode="normal" in2="BackgroundImageFix" result="effect1_dropShadow_1_68"/>
<feBlend mode="normal" in="SourceGraphic" in2="effect1_dropShadow_1_68" result="shape"/>
</filter>
<linearGradient id="paint0_linear_1_68" x1="129.5" y1="-7" x2="129.5" y2="20" gradientUnits="userSpaceOnUse">
<stop stop-color="#FF9901"/>
<stop offset="1" stop-color="#BCEF9E"/>
</linearGradient>
</defs>
</svg>
