<?xml version="1.0" encoding="UTF-8"?>
<svg version="1.1" viewBox="0 0 128 128" xmlns="http://www.w3.org/2000/svg">
  <path fill="#FFF"
    d="M64 .3C28.7.3 0 28.8 0 64s28.7 63.7 64 63.7 64-28.5 64-63.7S99.3.3 64 .3zm0 121C32.2 121.3 6.4 95.7 6.4 64 6.4 32.3 32.2 6.7 64 6.7s57.6 25.7 57.6 57.3c0 31.7-25.8 57.3-57.6 57.3zm23.2-76.8c-.9-.9-2.3-.9-3.2 0L55.2 73.2 41.4 59.5c-.9-.9-2.3-.9-3.2 0l-4.8 4.8c-.9.9-.9 2.3 0 3.2l15.3 15.3 3.3 3.3.8.8.7.7c.9.9 2.3.9 3.2 0L92 52.5c.9-.9.9-2.3 0-3.2l-4.8-4.8z" />
</svg>