<svg fill="#000000" version="1.1" id="Capa_1" xmlns="http://www.w3.org/2000/svg" xmlns:xlink="http://www.w3.org/1999/xlink" 
	 width="800px" height="800px" viewBox="0 0 598.465 598.465"
	 xml:space="preserve">
<g>
	<g>
		<path stroke="white" fill="white" d="M58.64,530.358h481.185c32.058,0,58.14-26.082,58.14-58.141v-299.88c0-32.059-26.082-58.14-58.14-58.14H323.819
			l-10.096-17.28c-5.114-8.754-12.467-16.05-21.261-21.097c-8.793-5.046-18.8-7.714-28.939-7.714H58.64
			c-32.059,0-58.14,26.082-58.14,58.14v30.791v298.165v17.016C0.5,504.276,26.582,530.358,58.64,530.358z M43.34,455.202V157.038
			v-30.791c0-8.45,6.85-15.3,15.3-15.3h204.883c5.438,0,10.468,2.886,13.21,7.582l18.069,30.927
			c2.743,4.695,7.772,7.582,13.211,7.582h231.812c8.449,0,15.3,6.85,15.3,15.3v299.88c0,8.449-6.851,15.299-15.3,15.299H58.64
			c-8.45,0-15.3-6.85-15.3-15.299V455.202z"/>
		<path stroke="white" fill="white" d="M539.825,530.858H58.64C26.306,530.858,0,504.553,0,472.218V126.247c0-32.334,26.306-58.64,58.64-58.64h204.883
			c10.226,0,20.319,2.69,29.188,7.781c8.87,5.091,16.285,12.448,21.443,21.278l9.951,17.032h215.719
			c32.334,0,58.64,26.306,58.64,58.64v299.88C598.465,504.553,572.159,530.858,539.825,530.858z M58.64,68.606
			C26.857,68.606,1,94.464,1,126.247v345.971c0,31.783,25.857,57.641,57.64,57.641h481.185c31.782,0,57.64-25.857,57.64-57.641
			v-299.88c0-31.783-25.857-57.64-57.64-57.64H323.532l-10.24-17.527c-5.07-8.679-12.359-15.912-21.078-20.916
			c-8.718-5.003-18.639-7.648-28.69-7.648H58.64z M539.825,488.017H58.64c-8.712,0-15.8-7.087-15.8-15.799V126.247
			c0-8.712,7.088-15.8,15.8-15.8h204.883c5.594,0,10.822,3,13.642,7.83l18.069,30.926c2.643,4.524,7.54,7.334,12.779,7.334h231.812
			c8.712,0,15.8,7.088,15.8,15.8v299.88C555.625,480.93,548.537,488.017,539.825,488.017z M58.64,111.447
			c-8.161,0-14.8,6.639-14.8,14.8v345.971c0,8.16,6.639,14.799,14.8,14.799h481.185c8.161,0,14.8-6.639,14.8-14.799v-299.88
			c0-8.161-6.639-14.8-14.8-14.8H308.014c-5.594,0-10.821-3-13.643-7.83l-18.069-30.927c-2.642-4.524-7.539-7.334-12.779-7.334
			H58.64z"/>
	</g>
</g>
</svg>