<svg width="34" height="34" viewBox="0 0 34 34" fill="none" xmlns="http://www.w3.org/2000/svg">
<circle cx="17" cy="17" r="16.625" stroke="#FFFFFF" stroke-width="0.75"/>
<path d="M16.7118 11.04L16.4535 11.3119L16.4605 11.3185L16.4678 11.3247L16.7118 11.04ZM16.8238 8.044L17.0772 8.32043L17.0777 8.31997L16.8238 8.044ZM19.7638 7.932L20.029 7.66683L19.7638 7.932ZM19.6238 10.9L19.8833 11.1707L19.8833 11.1707L19.6238 10.9ZM14.0518 26.972L14.2861 26.6792L14.0518 26.972ZM13.6038 24.452L13.2335 24.3928L13.6038 24.452ZM13.8558 23.052L13.4887 22.9753L13.4881 22.9785L13.8558 23.052ZM15.1718 16.752L14.8055 16.6716L14.8047 16.6753L15.1718 16.752ZM14.3598 15.128L14.1921 15.4634L14.1993 15.467L14.2067 15.4703L14.3598 15.128ZM13.9118 14.904L13.5384 14.87L13.5152 15.1249L13.7441 15.2394L13.9118 14.904ZM13.9398 14.596L13.8363 14.2356L13.5896 14.3064L13.5664 14.562L13.9398 14.596ZM19.2038 13.084L19.4547 12.8053L19.3001 12.6662L19.1003 12.7236L19.2038 13.084ZM19.4838 13.336L19.8504 13.415L19.8962 13.2026L19.7347 13.0573L19.4838 13.336ZM17.2998 23.472L17.6659 23.5534L17.6664 23.551L17.2998 23.472ZM17.1318 24.34L17.5017 24.4017L17.5025 24.397L17.1318 24.34ZM18.4758 25.376L18.6687 25.6976L18.6764 25.693L18.6838 25.688L18.4758 25.376ZM19.5398 24.48L19.805 24.2148L19.5456 23.9555L19.2806 24.209L19.5398 24.48ZM19.7918 24.732L20.1025 24.9419L20.2757 24.6856L20.057 24.4668L19.7918 24.732ZM17.9998 26.608L18.2273 26.9061L18.2285 26.9052L17.9998 26.608ZM18.0838 11.169C17.6494 11.169 17.279 11.0322 16.9559 10.7553L16.4678 11.3247C16.9286 11.7198 17.4728 11.919 18.0838 11.919V11.169ZM16.9701 10.7681C16.6809 10.4934 16.5268 10.1299 16.5268 9.64H15.7768C15.7768 10.3075 15.9961 10.8773 16.4535 11.3119L16.9701 10.7681ZM16.5268 9.64C16.5268 9.08294 16.713 8.65431 17.0772 8.32043L16.5704 7.76757C16.0386 8.25502 15.7768 8.89039 15.7768 9.64H16.5268ZM17.0777 8.31997C17.4824 7.94769 17.9166 7.775 18.3918 7.775V7.025C17.7097 7.025 17.0986 7.28164 16.5699 7.76802L17.0777 8.31997ZM18.3918 7.775C18.865 7.775 19.2228 7.9213 19.4986 8.19716L20.029 7.66683C19.5955 7.23336 19.0386 7.025 18.3918 7.025V7.775ZM19.4986 8.19716C19.7745 8.47302 19.9208 8.83078 19.9208 9.304H20.6708C20.6708 8.65722 20.4625 8.10031 20.029 7.66683L19.4986 8.19716ZM19.9208 9.304C19.9208 9.83907 19.7367 10.2724 19.3643 10.6293L19.8833 11.1707C20.407 10.6689 20.6708 10.0383 20.6708 9.304H19.9208ZM19.3643 10.6293C18.9806 10.997 18.5584 11.169 18.0838 11.169V11.919C18.7666 11.919 19.371 11.6617 19.8833 11.1707L19.3643 10.6293ZM15.4798 27.045C14.9678 27.045 14.5798 26.9141 14.2861 26.6792L13.8176 27.2648C14.2705 27.6272 14.8345 27.795 15.4798 27.795V27.045ZM14.2861 26.6792C14.0205 26.4668 13.8668 26.1473 13.8668 25.656H13.1168C13.1168 26.322 13.3364 26.8799 13.8176 27.2648L14.2861 26.6792ZM13.8668 25.656C13.8668 25.346 13.9014 24.9655 13.9741 24.5112L13.2335 24.3928C13.1569 24.8718 13.1168 25.294 13.1168 25.656H13.8668ZM13.9741 24.5112C14.048 24.0494 14.1311 23.5875 14.2235 23.1255L13.4881 22.9785C13.3938 23.4498 13.309 23.9213 13.2335 24.3928L13.9741 24.5112ZM14.2229 23.1287L15.5389 16.8287L14.8047 16.6753L13.4887 22.9753L14.2229 23.1287ZM15.5381 16.8324C15.635 16.3909 15.614 15.9718 15.4302 15.6043C15.2462 15.2363 14.9239 14.9695 14.5129 14.7857L14.2067 15.4703C14.5051 15.6038 14.6727 15.7663 14.7594 15.9397C14.8463 16.1135 14.8766 16.3477 14.8055 16.6716L15.5381 16.8324ZM14.5275 14.7926L14.0795 14.5686L13.7441 15.2394L14.1921 15.4634L14.5275 14.7926ZM14.2853 14.938L14.3133 14.63L13.5664 14.562L13.5384 14.87L14.2853 14.938ZM14.0433 14.9564L19.3073 13.4444L19.1003 12.7236L13.8363 14.2356L14.0433 14.9564ZM18.953 13.3627L19.233 13.6147L19.7347 13.0573L19.4547 12.8053L18.953 13.3627ZM19.1172 13.257L16.9332 23.393L17.6664 23.551L19.8504 13.415L19.1172 13.257ZM16.9337 23.3907C16.8579 23.7318 16.8001 24.0297 16.7612 24.283L17.5025 24.397C17.5381 24.165 17.5924 23.8842 17.6659 23.5533L16.9337 23.3907ZM16.7619 24.2784C16.7212 24.5224 16.7008 24.7671 16.7008 25.012H17.4508C17.4508 24.8089 17.4677 24.6056 17.5017 24.4016L16.7619 24.2784ZM16.7008 25.012C16.7008 25.2668 16.7579 25.5278 16.9383 25.7263C17.1249 25.9315 17.3816 26.003 17.6358 26.003V25.253C17.5166 25.253 17.4934 25.2219 17.4933 25.2217C17.487 25.2148 17.4508 25.1679 17.4508 25.012H16.7008ZM17.6358 26.003C17.9944 26.003 18.3403 25.8946 18.6687 25.6976L18.2829 25.0544C18.0513 25.1934 17.8372 25.253 17.6358 25.253V26.003ZM18.6838 25.688C18.9908 25.4834 19.3639 25.1672 19.799 24.751L19.2806 24.209C18.8571 24.6141 18.5208 24.8953 18.2678 25.064L18.6838 25.688ZM19.2746 24.7452L19.5266 24.9972L20.057 24.4668L19.805 24.2148L19.2746 24.7452ZM19.4811 24.5221C19.0391 25.1762 18.4705 25.7728 17.7712 26.3108L18.2285 26.9052C18.9851 26.3232 19.6112 25.6691 20.1025 24.9419L19.4811 24.5221ZM17.7723 26.3099C17.1342 26.7969 16.3759 27.045 15.4798 27.045V27.795C16.525 27.795 17.4468 27.5018 18.2273 26.9061L17.7723 26.3099Z" fill="#FFFFFF"/>
</svg>
