<svg xmlns="http://www.w3.org/2000/svg" width="32" height="32" viewBox="0 0 32 32"><path d="M30,5 31,5 31,6 30,6 M29,5 30,5 30,6 29,6 M28,4 29,4 29,5 28,5 M27,4 28,4 28,5 27,5 M26,4 27,4 27,5 26,5 M25,4 26,4 26,5 25,5 M24,4 25,4 25,5 24,5 M23,4 24,4 24,5 23,5 M22,4 23,4 23,5 22,5 M21,4 22,4 22,5 21,5 M20,4 21,4 21,5 20,5 M19,4 20,4 20,5 19,5 M18,4 19,4 19,5 18,5 M17,4 18,4 18,5 17,5 M16,4 17,4 17,5 16,5 M15,4 16,4 16,5 15,5 M14,4 15,4 15,5 14,5 M13,4 14,4 14,5 13,5 M12,4 13,4 13,5 12,5 M11,4 12,4 12,5 11,5 M10,4 11,4 11,5 10,5 M9,4 10,4 10,5 9,5 M8,4 9,4 9,5 8,5 M7,4 8,4 8,5 7,5 M6,4 7,4 7,5 6,5 M5,4 6,4 6,5 5,5 M4,4 5,4 5,5 4,5 M3,4 4,4 4,5 3,5 M2,4 3,4 3,5 2,5 M3,5 4,5 4,6 3,6 M4,6 5,6 5,7 4,7 M5,7 6,7 6,8 5,8 M5,5 6,5 6,6 5,6 M6,7 7,7 7,8 6,8 M7,7 8,7 8,8 7,8 M8,7 9,7 9,8 8,8 M6,6 7,6 7,7 6,7 M6,5 7,5 7,6 6,6 M7,5 8,5 8,6 7,6 M7,6 8,6 8,7 7,7 M8,6 9,6 9,7 8,7 M8,5 9,5 9,6 8,6 M9,6 10,6 10,7 9,7 M9,5 10,5 10,6 9,6 M10,5 11,5 11,6 10,6 M13,5 14,5 14,6 13,6 M14,6 15,6 15,7 14,7 M15,7 16,7 16,8 15,8 M15,5 16,5 16,6 15,6 M16,6 17,6 17,7 16,7 M16,7 17,7 17,8 16,8 M17,5 18,5 18,6 17,6 M17,7 18,7 18,8 17,8 M18,7 19,7 19,8 18,8 M18,6 19,6 19,7 18,7 M18,5 19,5 19,6 18,6 M19,6 20,6 20,7 19,7 M19,5 20,5 20,6 19,6 M20,5 21,5 21,6 20,6 " fill="#000000"></path><path d="M4,5 5,5 5,6 4,6 M5,6 6,6 6,7 5,7 M14,5 15,5 15,6 14,6 M15,6 16,6 16,7 15,7 M16,5 17,5 17,6 16,6 M17,6 18,6 18,7 17,7 " fill="#ffffff"></path></svg>