<svg width="93" height="90" viewBox="0 0 93 90" fill="none" xmlns="http://www.w3.org/2000/svg">
<path d="M0 44.5015C0.00607897 54.3756 3.00702 63.9952 8.57427 71.9867C14.1415 79.9781 21.9904 85.9326 31 89V86.4598C22.6959 83.4623 15.4833 77.8659 10.3486 70.4357C5.21397 63.0055 2.40796 54.1044 2.31432 44.9497H7.11475C7.20553 52.7491 9.5265 60.3431 13.7811 66.7615C18.0357 73.1799 24.0307 78.131 31 80.9822V80.0092C24.2034 77.1547 18.3812 72.2488 14.2811 65.9216C10.1809 59.5943 7.9902 52.1347 7.9902 44.5008C7.9902 36.8668 10.1809 29.4072 14.2811 23.0799C18.3812 16.7527 24.2034 11.8468 31 8.99235V8.01927C24.0309 10.8704 18.0361 15.8213 13.7815 22.2394C9.52692 28.6574 7.20581 36.2512 7.11475 44.0503H2.31432C2.40796 34.8956 5.21397 25.9945 10.3486 18.5643C15.4833 11.1341 22.6959 5.53765 31 2.54024V0C21.9901 3.06743 14.1411 9.02221 8.57385 17.0139C3.00657 25.0057 0.00577475 34.6256 0 44.5V44.5015Z" fill="url(#paint0_linear_0_1)"/>
<path d="M79.1869 11.6558C73.8285 6.27553 67.2445 2.27583 60 0V2.54739C68.8279 5.50466 76.5151 11.1385 81.9932 18.6658C87.4714 26.1931 90.4683 35.2399 90.5675 44.5489H85.0887C84.9926 36.6859 82.5543 29.03 78.0854 22.5595C73.6164 16.0889 67.3198 11.0975 60 8.22291V9.20395C67.1392 12.0812 73.2551 17.027 77.562 23.4061C81.869 29.7852 84.1703 37.3063 84.1703 45.003C84.1703 52.6998 81.869 60.2208 77.562 66.5999C73.2551 72.979 67.1392 77.9249 60 80.8021V81.7832C67.3196 78.9087 73.6161 73.9175 78.0849 67.4472C82.5538 60.977 84.9923 53.3215 85.0887 45.4587H90.5675C90.4683 54.7677 87.4714 63.8145 81.9932 71.3418C76.5151 78.8691 68.8279 84.5029 60 87.4602V90C67.7324 87.5638 74.7065 83.1761 80.2496 77.2604C85.7927 71.3446 89.7177 64.1003 91.646 56.2263C93.5744 48.3523 93.4409 40.1142 91.2586 32.3068C89.0763 24.4993 84.9187 17.3859 79.1869 11.6528V11.6558Z" fill="url(#paint1_linear_0_1)"/>
<defs>
<linearGradient id="paint0_linear_0_1" x1="15.5" y1="0" x2="15.5" y2="89" gradientUnits="userSpaceOnUse">
<stop stop-color="#B9B6B3"/>
<stop offset="1" stop-color="white" stop-opacity="0"/>
</linearGradient>
<linearGradient id="paint1_linear_0_1" x1="76.5" y1="0" x2="76.5" y2="90" gradientUnits="userSpaceOnUse">
<stop stop-color="#B9B6B3"/>
<stop offset="1" stop-color="white" stop-opacity="0"/>
</linearGradient>
</defs>
</svg>
