<?xml version="1.0" encoding="UTF-8"?>
<svg version="1.1" viewBox="0 0 32 32" xmlns="http://www.w3.org/2000/svg">
  <path
    d="m24.309 4.3086v9.0078h-1.6758v-6.5938h-5.0508v-4.8477h-12.766v23.305h6.1602v1.4688h-7.8281v-26.648h16.848zm-5.1719 17.293v-0.97266c0-0.33203 0.12891-0.64062 0.36328-0.87891 0.23047-0.23047 0.54688-0.36328 0.87891-0.36328 0.32812 0 0.64062 0.12891 0.875 0.36328s0.36719 0.55078 0.36328 0.87891v0.97266h0.91797v-0.97266c-0.015625-1.1797-0.97656-2.125-2.1562-2.125-1.1836 0-2.1445 0.94531-2.1602 2.125v0.97266zm4.3438 0.62109v4.3477h-6.207v-4.3477zm-2.4375 1.8359c-0.003907-0.32422-0.23828-0.60156-0.55859-0.65234s-0.63281 0.13672-0.73828 0.44531c-0.10156 0.30859 0.035156 0.64453 0.32031 0.79688v0.8125h0.62109v-0.8125c0.21875-0.11719 0.35547-0.33984 0.35547-0.58984zm7.8086-0.76562c0-4.8008-3.9062-8.707-8.707-8.707s-8.707 3.9062-8.707 8.707 3.9062 8.707 8.707 8.707 8.707-3.9062 8.707-8.707zm-1.3242 0c0 4.0703-3.3125 7.3789-7.3828 7.3789-4.0703 0-7.3789-3.3086-7.3789-7.3789 0-4.0703 3.3086-7.3828 7.3789-7.3828 4.0703 0 7.3828 3.3125 7.3828 7.3828z"
    fill="#fff" />
</svg>