<svg width="56" height="56" viewBox="0 0 56 56" fill="none" xmlns="http://www.w3.org/2000/svg">
<circle cx="28" cy="28" r="28" fill="#19473F"/>
<path d="M27.7801 54.3433C13.5649 54.3433 2 42.6028 2 28.1717C2 13.7405 13.5649 2 27.7801 2C41.9954 2 53.5602 13.7405 53.5602 28.1717C53.5602 42.6028 41.9954 54.3433 27.7801 54.3433ZM27.7801 2.91986C14.0648 2.91986 2.9061 14.248 2.9061 28.1717C2.9061 42.0953 14.0648 53.4235 27.7801 53.4235C41.4955 53.4235 52.6541 42.0953 52.6541 28.1717C52.6541 14.248 41.4955 2.91986 27.7801 2.91986Z" fill="white"/>
<path d="M27.7091 51.8443C32.2727 51.844 36.7364 50.4879 40.5499 47.9431C44.3634 45.3984 47.36 41.7763 49.1701 37.5235L46.627 35.9904V29.7798L40.5863 26.6047V39.6699H38.0236V45.3163H37.0676V9.49219L31.1221 15.528V23.6397L26.874 27.9477V45.3086H25.8984V36.7033L22.8509 34.5861V45.3086H21.8783V27.7362L17.1515 31.9001V45.3086H15.6247V40.0148H14.7186V36.6282H12.0003V26.5373L8.31699 29.2969V38.6074L7.24023 39.5993C9.2619 43.3119 12.2272 46.4062 15.8273 48.5598C19.4274 50.7135 23.5305 51.8477 27.7091 51.8443Z" fill="white"/>
</svg>
