<svg width="93" height="90" viewBox="0 0 93 90" fill="none" xmlns="http://www.w3.org/2000/svg">
<path d="M0 44.5015C0.00607897 54.3756 3.00702 63.9952 8.57427 71.9867C14.1415 79.9781 21.9904 85.9326 31 89V86.4598C22.6959 83.4623 15.4833 77.8659 10.3486 70.4357C5.21397 63.0055 2.40796 54.1044 2.31432 44.9497H7.11475C7.20553 52.7491 9.5265 60.3431 13.7811 66.7615C18.0357 73.1799 24.0307 78.131 31 80.9822V80.0092C24.2034 77.1547 18.3812 72.2488 14.2811 65.9216C10.1809 59.5943 7.9902 52.1347 7.9902 44.5008C7.9902 36.8668 10.1809 29.4072 14.2811 23.0799C18.3812 16.7527 24.2034 11.8468 31 8.99235V8.01927C24.0309 10.8704 18.0361 15.8213 13.7815 22.2394C9.52692 28.6574 7.20581 36.2512 7.11475 44.0503H2.31432C2.40796 34.8956 5.21397 25.9945 10.3486 18.5643C15.4833 11.1341 22.6959 5.53765 31 2.54024V0C21.9901 3.06743 14.1411 9.02221 8.57385 17.0139C3.00657 25.0057 0.00577475 34.6256 0 44.5V44.5015Z" fill="url(#paint0_linear_182_1277)"/>
<path d="M79.1869 11.6558C73.8285 6.27553 67.2445 2.27583 60 0V2.54739C68.8279 5.50466 76.5151 11.1385 81.9932 18.6658C87.4714 26.1931 90.4683 35.2399 90.5675 44.5489H85.0887C84.9926 36.6859 82.5543 29.03 78.0854 22.5595C73.6164 16.0889 67.3198 11.0975 60 8.22291V9.20395C67.1392 12.0812 73.2551 17.027 77.562 23.4061C81.869 29.7852 84.1703 37.3063 84.1703 45.003C84.1703 52.6998 81.869 60.2208 77.562 66.5999C73.2551 72.979 67.1392 77.9249 60 80.8021V81.7832C67.3196 78.9087 73.6161 73.9175 78.0849 67.4472C82.5538 60.977 84.9923 53.3215 85.0887 45.4587H90.5675C90.4683 54.7677 87.4714 63.8145 81.9932 71.3418C76.5151 78.8691 68.8279 84.5029 60 87.4602V90C67.7324 87.5638 74.7065 83.1761 80.2496 77.2604C85.7927 71.3446 89.7177 64.1003 91.646 56.2263C93.5744 48.3523 93.4409 40.1142 91.2586 32.3068C89.0763 24.4993 84.9187 17.3859 79.1869 11.6528V11.6558Z" fill="url(#paint1_linear_182_1277)"/>
<path d="M44.8152 70.8003C30.5807 70.8003 19 59.1814 19 44.9001C19 30.6188 30.5807 19 44.8152 19C59.0497 19 70.6305 30.6203 70.6305 44.9062C70.6305 59.1921 59.0497 70.8003 44.8152 70.8003ZM44.8152 19.9097C31.081 19.9097 19.9068 31.1207 19.9068 44.9001C19.9068 58.6796 31.081 69.8905 44.8152 69.8905C58.5495 69.8905 69.7237 58.6796 69.7237 44.9001C69.7237 31.1207 58.551 19.9158 44.8152 19.9158V19.9097Z" fill="url(#paint2_linear_182_1277)"/>
<path d="M44.8152 20.9302C38.4772 20.9302 32.3988 23.4562 27.9172 27.9526C23.4355 32.449 20.9178 38.5474 20.9178 44.9062C20.9178 51.2651 23.4355 57.3635 27.9172 61.8598C32.3988 66.3562 38.4772 68.8823 44.8152 68.8823C47.9536 68.8825 51.0612 68.2624 53.9606 67.0576C56.8601 65.8528 59.4946 64.0867 61.7137 61.8603C63.9329 59.6339 65.6931 56.9907 66.894 54.0817C68.0949 51.1727 68.7129 48.0549 68.7127 44.9062C68.7127 41.7576 68.0946 38.6399 66.8936 35.731C65.6927 32.8221 63.9324 30.179 61.7133 27.9526C59.4942 25.7262 56.8598 23.9602 53.9604 22.7552C51.061 21.5503 47.9535 20.9302 44.8152 20.9302Z" fill="url(#paint3_linear_182_1277)"/>
<path d="M38.2671 38.142C38.2671 36.014 38.9531 34.306 40.3251 33.018C41.6971 31.73 43.4611 31.086 45.6171 31.086C47.6051 31.086 49.2851 31.702 50.6571 32.934C52.0291 34.166 52.7151 35.776 52.7151 37.764C52.7151 39.388 52.2111 40.802 51.2031 42.006C50.7271 42.566 49.5791 43.546 47.7591 44.946C46.6391 45.814 45.8691 46.682 45.4491 47.55C45.0571 48.39 44.8611 49.524 44.8611 50.952C44.8611 51.708 44.6791 52.086 44.3151 52.086C43.8951 52.086 43.6851 51.806 43.6851 51.246V50.952C43.6851 49.328 43.9231 48.012 44.3991 47.004C44.9031 45.996 45.7851 45.002 47.0451 44.022C48.7531 42.706 49.7751 41.852 50.1111 41.46C51.0631 40.424 51.5391 39.206 51.5391 37.806C51.5391 36.154 50.9651 34.824 49.8171 33.816C48.6691 32.78 47.2551 32.262 45.5751 32.262C43.8111 32.262 42.3411 32.78 41.1651 33.816C40.0171 34.852 39.4431 36.238 39.4431 37.974C39.4431 38.45 39.2611 38.688 38.8971 38.688C38.4771 38.688 38.2671 38.506 38.2671 38.142ZM44.2311 55.278C44.8751 55.278 45.1971 55.6 45.1971 56.244C45.1971 56.888 44.8751 57.21 44.2311 57.21C43.5871 57.21 43.2651 56.888 43.2651 56.244C43.2651 55.6 43.5871 55.278 44.2311 55.278Z" fill="#303D3B"/>
<defs>
<linearGradient id="paint0_linear_182_1277" x1="15.5" y1="0" x2="15.5" y2="89" gradientUnits="userSpaceOnUse">
<stop stop-color="#B9B6B3"/>
<stop offset="1" stop-color="white" stop-opacity="0"/>
</linearGradient>
<linearGradient id="paint1_linear_182_1277" x1="76.5" y1="0" x2="76.5" y2="90" gradientUnits="userSpaceOnUse">
<stop stop-color="#B9B6B3"/>
<stop offset="1" stop-color="white" stop-opacity="0"/>
</linearGradient>
<linearGradient id="paint2_linear_182_1277" x1="44.8152" y1="19" x2="44.8152" y2="70.8003" gradientUnits="userSpaceOnUse">
<stop stop-color="white"/>
<stop offset="1" stop-color="white" stop-opacity="0"/>
</linearGradient>
<linearGradient id="paint3_linear_182_1277" x1="44.8152" y1="20.9302" x2="44.8152" y2="68.8823" gradientUnits="userSpaceOnUse">
<stop stop-color="white"/>
<stop offset="1" stop-color="white" stop-opacity="0"/>
</linearGradient>
</defs>
</svg>
